{"title":"Treasures of Ancient Greece - s01e01 The Age of Heroes x264.mp4","uid":11806388,"size":664146274,"categoryP":"video","categoryS":"tv_shows","magnet":"?xt=urn:btih:f2a2619a0c0fe23eb4443b6414ebe315e96a2df1&amp;dn=Treasures+of+Ancient+Greece+-+s01e01+The+Age+of+Heroes+x264.mp4&amp;tr=udp%3A%2F%2Ftracker.openbittorrent.com%3A80&amp;tr=udp%3A%2F%2Fopen.demonii.com%3A1337&amp;tr=udp%3A%2F%2Ftracker.coppersurfer.tk%3A6969&amp;tr=udp%3A%2F%2Fexodus.desync.com%3A6969","seeders":4,"leechers":0,"uploader":"akula941","files":1,"time":1428607528,"description":"In the first episode Alastair Sooke explores the surprising roots of Greek art, beginning his journey in Crete at the palace of Knossos, legendary home of the Minotaur. He travels to Santorini to the 'Greek Pompeii', and finds gold in the fabled stronghold of Mycenae and dazzling remains from Greece's Dark Ages. Alastair discovers the beginnings of a defining spirit in Greek art, embracing mythology, a passion for symmetry, and an obsession with the human body.\n\n\nFormat : MPEG-4\nFormat profile : Base Media\nCodec ID : isom\nFile size : 633 MiB\nDuration : 58mn 55s\nOverall bit rate mode : Constant\nOverall bit rate : 1 503 Kbps\nWriting application : Lavf54.63.104\n\nVideo\nID : 1\nFormat : AVC\nFormat/Info : Advanced Video Codec\nFormat profile : &lt;a class=&quot;__cf_email__&quot; href=&quot;/cdn-cgi/l/email-protection&quot; data-cfemail=&quot;cf82aea6a18f83fce1fe&quot;&gt;[email&amp;#160;protected]&lt;/a&gt;&lt;script cf-hash='f9e31' type=&quot;text/javascript&quot;&gt;\n/* &lt;![CDATA[ */!function(){try{var t=&quot;currentScript&quot;in document?document.currentScript:function(){for(var t=document.getElementsByTagName(&quot;script&quot;),e=t.length;e--;)if(t[e].getAttribute(&quot;cf-hash&quot;))return t[e]}();if(t&amp;&amp;t.previousSibling){var e,r,n,i,c=t.previousSibling,a=c.getAttribute(&quot;data-cfemail&quot;);if(a){for(e=&quot;&quot;,r=parseInt(a.substr(0,2),16),n=2;a.length-n;n+=2)i=parseInt(a.substr(n,2),16)^r,e+=String.fromCharCode(i);e=document.createTextNode(e),c.parentNode.replaceChild(e,c)}}}catch(u){}}();/* ]]&gt; */&lt;/script&gt;\nFormat settings, CABAC : Yes\nFormat settings, ReFrames : 2 frames\nCodec ID : avc1\nCodec ID/Info : Advanced Video Coding\nDuration : 58mn 55s\nBit rate mode : Constant\nBit rate : 1 404 Kbps\nWidth : 832 pixels\nHeight : 468 pixels\nDisplay aspect ratio : 16:9\nFrame rate mode : Constant\nFrame rate : 25.000 fps\nColor space : YUV\nChroma subsampling : 4:2:0\nBit depth : 8 bits\nScan type : Progressive\nBits/(Pixel*Frame) : 0.144\nStream size : 592 MiB (93%)\n\nAudio\nID : 2\nFormat : AAC\nFormat/Info : Advanced Audio Codec\nFormat profile : LC\nCodec ID : 40\nDuration : 58mn 55s\nBit rate mode : Constant\nBit rate : 93.5 Kbps\nChannel(s) : 2 channels\nChannel positions : Front: L R\nSampling rate : 48.0 KHz\nCompression mode : Lossy\nStream size : 39.4 MiB (6%)","torrent":{"xt":"urn:btih:f2a2619a0c0fe23eb4443b6414ebe315e96a2df1","amp;dn":"Treasures+of+Ancient+Greece+-+s01e01+The+Age+of+Heroes+x264.mp4","amp;tr":["udp%3A%2F%2Ftracker.openbittorrent.com%3A80","udp%3A%2F%2Fopen.demonii.com%3A1337","udp%3A%2F%2Ftracker.coppersurfer.tk%3A6969","udp%3A%2F%2Fexodus.desync.com%3A6969"],"infoHash":"f2a2619a0c0fe23eb4443b6414ebe315e96a2df1","infoHashBuffer":{"type":"Buffer","data":[242,162,97,154,12,15,226,62,180,68,59,100,20,235,227,21,233,106,45,241]},"announce":[],"urlList":[]}}